<svg xmlns="http://www.w3.org/2000/svg" width="120" height="120" viewBox="0 0 120 120">
  <rect width="120" height="120" rx="16" fill="#26263f"/>
  <!-- starfield -->
  <circle cx="0"   cy="4"   r="0.70" fill="#d4c4a8" opacity="0.22"/>
  <circle cx="13"  cy="1"   r="0.55" fill="#d4c4a8" opacity="0.16"/>
  <circle cx="27"  cy="6"   r="0.82" fill="#d4c4a8" opacity="0.24"/>
  <circle cx="41"  cy="2"   r="0.48" fill="#d4c4a8" opacity="0.13"/>
  <circle cx="57"  cy="7"   r="0.64" fill="#c8d4e8" opacity="0.18"/>
  <circle cx="71"  cy="1"   r="0.44" fill="#d4c4a8" opacity="0.13"/>
  <circle cx="85"  cy="5"   r="0.76" fill="#d4c4a8" opacity="0.22"/>
  <circle cx="99"  cy="3"   r="0.52" fill="#d4c4a8" opacity="0.15"/>
  <circle cx="112" cy="7"   r="0.68" fill="#d4c4a8" opacity="0.19"/>
  <circle cx="120" cy="2"   r="0.60" fill="#d4c4a8" opacity="0.17"/>
  <circle cx="0"   cy="117" r="0.72" fill="#d4c4a8" opacity="0.21"/>
  <circle cx="31"  cy="114" r="0.66" fill="#d4c4a8" opacity="0.18"/>
  <circle cx="62"  cy="116" r="0.78" fill="#d4c4a8" opacity="0.22"/>
  <circle cx="91"  cy="115" r="0.60" fill="#d4c4a8" opacity="0.17"/>
  <circle cx="119" cy="113" r="0.74" fill="#d4c4a8" opacity="0.21"/>
  <circle cx="2"   cy="17"  r="0.68" fill="#d4c4a8" opacity="0.19"/>
  <circle cx="0"   cy="31"  r="0.58" fill="#d4c4a8" opacity="0.17"/>
  <circle cx="3"   cy="46"  r="0.80" fill="#d4c4a8" opacity="0.23"/>
  <circle cx="1"   cy="60"  r="0.52" fill="#d4c4a8" opacity="0.15"/>
  <circle cx="4"   cy="74"  r="0.74" fill="#c8d4e8" opacity="0.21"/>
  <circle cx="0"   cy="88"  r="0.60" fill="#d4c4a8" opacity="0.17"/>
  <circle cx="3"   cy="102" r="0.66" fill="#d4c4a8" opacity="0.18"/>
  <circle cx="118" cy="21"  r="0.62" fill="#d4c4a8" opacity="0.18"/>
  <circle cx="120" cy="35"  r="0.76" fill="#d4c4a8" opacity="0.22"/>
  <circle cx="117" cy="49"  r="0.50" fill="#d4c4a8" opacity="0.14"/>
  <circle cx="120" cy="63"  r="0.70" fill="#d4c4a8" opacity="0.20"/>
  <circle cx="118" cy="77"  r="0.44" fill="#c8d4e8" opacity="0.13"/>
  <circle cx="120" cy="91"  r="0.80" fill="#d4c4a8" opacity="0.23"/>
  <circle cx="117" cy="105" r="0.56" fill="#d4c4a8" opacity="0.16"/>
  <circle cx="18"  cy="14"  r="0.86" fill="#d4c4a8" opacity="0.25"/>
  <circle cx="81"  cy="24"  r="0.88" fill="#d4c4a8" opacity="0.26"/>
  <circle cx="21"  cy="38"  r="0.92" fill="#d4c4a8" opacity="0.27"/>
  <circle cx="73"  cy="42"  r="0.62" fill="#c8d4e8" opacity="0.18"/>
  <circle cx="88"  cy="48"  r="0.80" fill="#d4c4a8" opacity="0.23"/>
  <circle cx="25"  cy="63"  r="0.76" fill="#d4c4a8" opacity="0.22"/>
  <circle cx="110" cy="62"  r="0.66" fill="#c8d4e8" opacity="0.18"/>
  <circle cx="36"  cy="71"  r="0.84" fill="#d4c4a8" opacity="0.24"/>
  <circle cx="90"  cy="85"  r="0.78" fill="#d4c4a8" opacity="0.22"/>
  <circle cx="13"  cy="100" r="0.86" fill="#d4c4a8" opacity="0.25"/>
  <circle cx="105" cy="103" r="0.72" fill="#d4c4a8" opacity="0.20"/>
  <!-- spiral (inverted colors: red rock spiral, periwinkle arm) -->
  <polyline points="60,60 68,46 76,51 80,60 79,71 72,81 60,86 46,84 34,75 28,60 31,43 42,29 60,22 80,25 96,39 104,60"
    fill="none" stroke="#c4673a" stroke-width="0.75" stroke-linejoin="round" stroke-linecap="round" opacity="0.40"/>
  <line x1="104" y1="60" x2="116" y2="14" stroke="#8f93c9" stroke-width="0.85" stroke-linecap="round" opacity="0.68"/>
  <circle cx="116" cy="14"  r="2.4" fill="#8f93c9" opacity="0.95"/>
  <!-- constellation nodes -->
  <circle cx="68"  cy="46"  r="1.0" fill="#d4c4a8" opacity="0.68"/>
  <circle cx="76"  cy="51"  r="1.1" fill="#d4c4a8" opacity="0.72"/>
  <circle cx="80"  cy="60"  r="1.1" fill="#d4c4a8" opacity="0.75"/>
  <circle cx="79"  cy="71"  r="1.2" fill="#d4c4a8" opacity="0.78"/>
  <circle cx="72"  cy="81"  r="1.2" fill="#d4c4a8" opacity="0.81"/>
  <circle cx="60"  cy="86"  r="1.3" fill="#d4c4a8" opacity="0.84"/>
  <circle cx="46"  cy="84"  r="1.3" fill="#d4c4a8" opacity="0.85"/>
  <circle cx="34"  cy="75"  r="1.4" fill="#d4c4a8" opacity="0.87"/>
  <circle cx="28"  cy="60"  r="1.4" fill="#d4c4a8" opacity="0.88"/>
  <circle cx="31"  cy="43"  r="1.5" fill="#d4c4a8" opacity="0.89"/>
  <circle cx="42"  cy="29"  r="1.5" fill="#d4c4a8" opacity="0.91"/>
  <circle cx="60"  cy="22"  r="1.6" fill="#d4c4a8" opacity="0.92"/>
  <circle cx="80"  cy="25"  r="1.6" fill="#d4c4a8" opacity="0.93"/>
  <circle cx="96"  cy="39"  r="1.7" fill="#d4c4a8" opacity="0.95"/>
  <circle cx="104" cy="60"  r="1.8" fill="#d4c4a8" opacity="0.96"/>
  <!-- center orb -->
  <circle cx="60" cy="60" r="7.5" fill="#26263f"/>
  <circle cx="60" cy="60" r="5.5" fill="#c8a84b" opacity="0.28"/>
  <circle cx="60" cy="60" r="3"   fill="#d4b85a" opacity="0.68"/>
  <circle cx="60" cy="60" r="1.5" fill="#f0e8e0" opacity="0.97"/>
</svg>
