<svg xmlns="http://www.w3.org/2000/svg" width="320" height="52" viewBox="0 0 320 52">
  <rect width="320" height="52" fill="#1e1e35"/>
  <!-- starfield — 320×52, edge to edge -->
  <circle cx="0"   cy="3"   r="0.55" fill="#d4c4a8" opacity="0.22"/>
  <circle cx="14"  cy="1"   r="0.42" fill="#d4c4a8" opacity="0.15"/>
  <circle cx="33"  cy="5"   r="0.60" fill="#d4c4a8" opacity="0.20"/>
  <circle cx="57"  cy="2"   r="0.38" fill="#d4c4a8" opacity="0.13"/>
  <circle cx="81"  cy="6"   r="0.52" fill="#c8d4e8" opacity="0.18"/>
  <circle cx="108" cy="1"   r="0.44" fill="#d4c4a8" opacity="0.15"/>
  <circle cx="134" cy="4"   r="0.64" fill="#d4c4a8" opacity="0.22"/>
  <circle cx="161" cy="2"   r="0.36" fill="#d4c4a8" opacity="0.12"/>
  <circle cx="188" cy="6"   r="0.50" fill="#d4c4a8" opacity="0.17"/>
  <circle cx="215" cy="1"   r="0.42" fill="#d4c4a8" opacity="0.14"/>
  <circle cx="242" cy="5"   r="0.58" fill="#d4c4a8" opacity="0.19"/>
  <circle cx="268" cy="2"   r="0.38" fill="#c8d4e8" opacity="0.13"/>
  <circle cx="293" cy="4"   r="0.50" fill="#d4c4a8" opacity="0.17"/>
  <circle cx="319" cy="1"   r="0.46" fill="#d4c4a8" opacity="0.16"/>
  <circle cx="7"   cy="14"  r="0.48" fill="#d4c4a8" opacity="0.16"/>
  <circle cx="26"  cy="11"  r="0.66" fill="#d4c4a8" opacity="0.22"/>
  <circle cx="48"  cy="17"  r="0.36" fill="#d4c4a8" opacity="0.12"/>
  <circle cx="72"  cy="13"  r="0.56" fill="#d4c4a8" opacity="0.19"/>
  <circle cx="97"  cy="18"  r="0.42" fill="#d4c4a8" opacity="0.14"/>
  <circle cx="121" cy="12"  r="0.62" fill="#d4c4a8" opacity="0.21"/>
  <circle cx="148" cy="16"  r="0.38" fill="#d4c4a8" opacity="0.13"/>
  <circle cx="174" cy="11"  r="0.52" fill="#c8d4e8" opacity="0.17"/>
  <circle cx="200" cy="19"  r="0.44" fill="#d4c4a8" opacity="0.15"/>
  <circle cx="226" cy="14"  r="0.66" fill="#d4c4a8" opacity="0.22"/>
  <circle cx="252" cy="12"  r="0.38" fill="#d4c4a8" opacity="0.13"/>
  <circle cx="277" cy="17"  r="0.54" fill="#d4c4a8" opacity="0.18"/>
  <circle cx="303" cy="13"  r="0.42" fill="#d4c4a8" opacity="0.14"/>
  <circle cx="319" cy="18"  r="0.60" fill="#d4c4a8" opacity="0.20"/>
  <circle cx="0"   cy="26"  r="0.58" fill="#d4c4a8" opacity="0.19"/>
  <circle cx="19"  cy="28"  r="0.40" fill="#d4c4a8" opacity="0.13"/>
  <circle cx="42"  cy="25"  r="0.52" fill="#d4c4a8" opacity="0.17"/>
  <circle cx="67"  cy="29"  r="0.36" fill="#d4c4a8" opacity="0.12"/>
  <circle cx="91"  cy="26"  r="0.60" fill="#d4c4a8" opacity="0.20"/>
  <circle cx="116" cy="28"  r="0.40" fill="#c8d4e8" opacity="0.13"/>
  <circle cx="141" cy="25"  r="0.54" fill="#d4c4a8" opacity="0.18"/>
  <circle cx="167" cy="29"  r="0.38" fill="#d4c4a8" opacity="0.13"/>
  <circle cx="192" cy="26"  r="0.64" fill="#d4c4a8" opacity="0.21"/>
  <circle cx="218" cy="28"  r="0.36" fill="#d4c4a8" opacity="0.12"/>
  <circle cx="244" cy="25"  r="0.52" fill="#d4c4a8" opacity="0.17"/>
  <circle cx="270" cy="29"  r="0.44" fill="#d4c4a8" opacity="0.15"/>
  <circle cx="295" cy="26"  r="0.60" fill="#d4c4a8" opacity="0.20"/>
  <circle cx="320" cy="28"  r="0.42" fill="#d4c4a8" opacity="0.14"/>
  <circle cx="5"   cy="38"  r="0.52" fill="#d4c4a8" opacity="0.17"/>
  <circle cx="29"  cy="41"  r="0.62" fill="#d4c4a8" opacity="0.21"/>
  <circle cx="54"  cy="36"  r="0.38" fill="#d4c4a8" opacity="0.13"/>
  <circle cx="79"  cy="42"  r="0.54" fill="#d4c4a8" opacity="0.18"/>
  <circle cx="104" cy="37"  r="0.40" fill="#d4c4a8" opacity="0.13"/>
  <circle cx="129" cy="40"  r="0.58" fill="#d4c4a8" opacity="0.19"/>
  <circle cx="155" cy="36"  r="0.34" fill="#c8d4e8" opacity="0.11"/>
  <circle cx="180" cy="42"  r="0.50" fill="#d4c4a8" opacity="0.17"/>
  <circle cx="206" cy="38"  r="0.44" fill="#d4c4a8" opacity="0.15"/>
  <circle cx="232" cy="41"  r="0.66" fill="#d4c4a8" opacity="0.22"/>
  <circle cx="258" cy="37"  r="0.36" fill="#d4c4a8" opacity="0.12"/>
  <circle cx="284" cy="40"  r="0.52" fill="#d4c4a8" opacity="0.17"/>
  <circle cx="310" cy="36"  r="0.46" fill="#d4c4a8" opacity="0.15"/>
  <circle cx="320" cy="42"  r="0.58" fill="#d4c4a8" opacity="0.19"/>
  <circle cx="0"   cy="50"  r="0.56" fill="#d4c4a8" opacity="0.19"/>
  <circle cx="18"  cy="52"  r="0.40" fill="#d4c4a8" opacity="0.13"/>
  <circle cx="44"  cy="48"  r="0.50" fill="#d4c4a8" opacity="0.17"/>
  <circle cx="69"  cy="51"  r="0.36" fill="#d4c4a8" opacity="0.12"/>
  <circle cx="94"  cy="49"  r="0.60" fill="#d4c4a8" opacity="0.20"/>
  <circle cx="120" cy="52"  r="0.38" fill="#c8d4e8" opacity="0.13"/>
  <circle cx="146" cy="48"  r="0.52" fill="#d4c4a8" opacity="0.17"/>
  <circle cx="172" cy="51"  r="0.40" fill="#d4c4a8" opacity="0.13"/>
  <circle cx="198" cy="49"  r="0.58" fill="#d4c4a8" opacity="0.19"/>
  <circle cx="224" cy="52"  r="0.34" fill="#d4c4a8" opacity="0.11"/>
  <circle cx="250" cy="48"  r="0.48" fill="#d4c4a8" opacity="0.16"/>
  <circle cx="276" cy="51"  r="0.42" fill="#d4c4a8" opacity="0.14"/>
  <circle cx="302" cy="49"  r="0.56" fill="#d4c4a8" opacity="0.19"/>
  <circle cx="320" cy="50"  r="0.44" fill="#d4c4a8" opacity="0.15"/>
  <!-- icon — scale 120→52 -->
  <g transform="scale(0.4333)">
    <polyline points="60,60 68,46 76,51 80,60 79,71 72,81 60,86 46,84 34,75 28,60 31,43 42,29 60,22 80,25 96,39 104,60"
      fill="none" stroke="#6b6fad" stroke-width="0.75" stroke-linejoin="round" stroke-linecap="round" opacity="0.40"/>
    <line x1="104" y1="60" x2="116" y2="14" stroke="#c4673a" stroke-width="0.85" stroke-linecap="round" opacity="0.68"/>
    <circle cx="116" cy="14"  r="2.4" fill="#c4673a" opacity="0.95"/>
    <circle cx="68"  cy="46"  r="1.0" fill="#a8c4e0" opacity="0.68"/>
    <circle cx="76"  cy="51"  r="1.1" fill="#a8c4e0" opacity="0.72"/>
    <circle cx="80"  cy="60"  r="1.1" fill="#a8c4e0" opacity="0.75"/>
    <circle cx="79"  cy="71"  r="1.2" fill="#a8c4e0" opacity="0.78"/>
    <circle cx="72"  cy="81"  r="1.2" fill="#a8c4e0" opacity="0.81"/>
    <circle cx="60"  cy="86"  r="1.3" fill="#a8c4e0" opacity="0.84"/>
    <circle cx="46"  cy="84"  r="1.3" fill="#a8c4e0" opacity="0.85"/>
    <circle cx="34"  cy="75"  r="1.4" fill="#a8c4e0" opacity="0.87"/>
    <circle cx="28"  cy="60"  r="1.4" fill="#a8c4e0" opacity="0.88"/>
    <circle cx="31"  cy="43"  r="1.5" fill="#a8c4e0" opacity="0.89"/>
    <circle cx="42"  cy="29"  r="1.5" fill="#a8c4e0" opacity="0.91"/>
    <circle cx="60"  cy="22"  r="1.6" fill="#a8c4e0" opacity="0.92"/>
    <circle cx="80"  cy="25"  r="1.6" fill="#a8c4e0" opacity="0.93"/>
    <circle cx="96"  cy="39"  r="1.7" fill="#a8c4e0" opacity="0.95"/>
    <circle cx="104" cy="60"  r="1.8" fill="#a8c4e0" opacity="0.96"/>
    <circle cx="60" cy="60" r="7.5" fill="#1e1e35"/>
    <circle cx="60" cy="60" r="5.5" fill="#c8a84b" opacity="0.28"/>
    <circle cx="60" cy="60" r="3"   fill="#d4b85a" opacity="0.68"/>
    <circle cx="60" cy="60" r="1.5" fill="#f0e8e0" opacity="0.97"/>
  </g>
  <!-- wordmark -->
  <text x="62" y="19"
    font-family="system-ui, -apple-system, sans-serif"
    font-size="10.5" font-weight="300" letter-spacing="4.5"
    fill="#e0d8f0" opacity="0.88">CLEAR THE</text>
  <text x="62" y="38"
    font-family="system-ui, -apple-system, sans-serif"
    font-size="15" font-weight="400" letter-spacing="3.5"
    fill="#a8c4e0" opacity="0.94">SIGNAL</text>
</svg>
