<svg xmlns="http://www.w3.org/2000/svg" width="280" height="260">
  <rect width="280" height="260" fill="#1e1e35"/>
  <!-- starfield — 280×260 -->
  <circle cx="0"   cy="8"   r="0.64" fill="#d4c4a8" opacity="0.22"/>
  <circle cx="28"  cy="2"   r="0.52" fill="#d4c4a8" opacity="0.17"/>
  <circle cx="62"  cy="11"  r="0.76" fill="#d4c4a8" opacity="0.26"/>
  <circle cx="96"  cy="4"   r="0.44" fill="#d4c4a8" opacity="0.15"/>
  <circle cx="134" cy="9"   r="0.60" fill="#c8d4e8" opacity="0.20"/>
  <circle cx="172" cy="2"   r="0.42" fill="#d4c4a8" opacity="0.14"/>
  <circle cx="208" cy="7"   r="0.72" fill="#d4c4a8" opacity="0.24"/>
  <circle cx="245" cy="3"   r="0.50" fill="#d4c4a8" opacity="0.17"/>
  <circle cx="278" cy="10"  r="0.64" fill="#d4c4a8" opacity="0.21"/>
  <circle cx="0"   cy="40"  r="0.68" fill="#d4c4a8" opacity="0.22"/>
  <circle cx="0"   cy="80"  r="0.58" fill="#d4c4a8" opacity="0.19"/>
  <circle cx="0"   cy="120" r="0.76" fill="#c8d4e8" opacity="0.24"/>
  <circle cx="0"   cy="160" r="0.62" fill="#d4c4a8" opacity="0.20"/>
  <circle cx="0"   cy="200" r="0.70" fill="#d4c4a8" opacity="0.23"/>
  <circle cx="0"   cy="250" r="0.56" fill="#d4c4a8" opacity="0.18"/>
  <circle cx="280" cy="35"  r="0.72" fill="#d4c4a8" opacity="0.23"/>
  <circle cx="280" cy="75"  r="0.58" fill="#d4c4a8" opacity="0.19"/>
  <circle cx="280" cy="115" r="0.80" fill="#c8d4e8" opacity="0.26"/>
  <circle cx="280" cy="155" r="0.54" fill="#d4c4a8" opacity="0.18"/>
  <circle cx="280" cy="195" r="0.68" fill="#d4c4a8" opacity="0.22"/>
  <circle cx="280" cy="248" r="0.62" fill="#d4c4a8" opacity="0.20"/>
  <circle cx="0"   cy="258" r="0.66" fill="#d4c4a8" opacity="0.22"/>
  <circle cx="44"  cy="257" r="0.48" fill="#d4c4a8" opacity="0.16"/>
  <circle cx="92"  cy="256" r="0.72" fill="#d4c4a8" opacity="0.24"/>
  <circle cx="138" cy="259" r="0.44" fill="#c8d4e8" opacity="0.15"/>
  <circle cx="186" cy="256" r="0.60" fill="#d4c4a8" opacity="0.20"/>
  <circle cx="234" cy="258" r="0.50" fill="#d4c4a8" opacity="0.17"/>
  <circle cx="278" cy="258" r="0.70" fill="#d4c4a8" opacity="0.23"/>
  <circle cx="22"  cy="24"  r="0.86" fill="#d4c4a8" opacity="0.28"/>
  <circle cx="58"  cy="32"  r="0.44" fill="#d4c4a8" opacity="0.14"/>
  <circle cx="98"  cy="18"  r="0.68" fill="#d4c4a8" opacity="0.22"/>
  <circle cx="152" cy="28"  r="0.40" fill="#d4c4a8" opacity="0.13"/>
  <circle cx="198" cy="16"  r="0.84" fill="#d4c4a8" opacity="0.28"/>
  <circle cx="248" cy="26"  r="0.46" fill="#d4c4a8" opacity="0.15"/>
  <circle cx="14"  cy="56"  r="0.58" fill="#d4c4a8" opacity="0.19"/>
  <circle cx="52"  cy="48"  r="0.42" fill="#d4c4a8" opacity="0.14"/>
  <circle cx="84"  cy="62"  r="0.70" fill="#c8d4e8" opacity="0.22"/>
  <circle cx="222" cy="52"  r="0.78" fill="#d4c4a8" opacity="0.26"/>
  <circle cx="258" cy="60"  r="0.50" fill="#d4c4a8" opacity="0.17"/>
  <circle cx="16"  cy="130" r="0.52" fill="#d4c4a8" opacity="0.17"/>
  <circle cx="50"  cy="122" r="0.66" fill="#d4c4a8" opacity="0.21"/>
  <circle cx="228" cy="128" r="0.74" fill="#d4c4a8" opacity="0.24"/>
  <circle cx="262" cy="134" r="0.44" fill="#c8d4e8" opacity="0.14"/>
  <circle cx="22"  cy="175" r="0.68" fill="#d4c4a8" opacity="0.22"/>
  <circle cx="256" cy="170" r="0.58" fill="#d4c4a8" opacity="0.19"/>
  <circle cx="18"  cy="220" r="0.80" fill="#d4c4a8" opacity="0.26"/>
  <circle cx="86"  cy="228" r="0.38" fill="#d4c4a8" opacity="0.12"/>
  <circle cx="162" cy="222" r="0.60" fill="#d4c4a8" opacity="0.20"/>
  <circle cx="240" cy="216" r="0.52" fill="#c8d4e8" opacity="0.17"/>
  <!-- icon centered at top, 110×110 display size -->
  <g transform="translate(85,10) scale(0.9167)">
    <polyline points="60,60 68,46 76,51 80,60 79,71 72,81 60,86 46,84 34,75 28,60 31,43 42,29 60,22 80,25 96,39 104,60"
      fill="none" stroke="#6b6fad" stroke-width="0.75" stroke-linejoin="round" stroke-linecap="round" opacity="0.40"/>
    <line x1="104" y1="60" x2="116" y2="14" stroke="#c4673a" stroke-width="0.85" stroke-linecap="round" opacity="0.68"/>
    <circle cx="116" cy="14"  r="2.4" fill="#c4673a" opacity="0.95"/>
    <circle cx="68"  cy="46"  r="1.0" fill="#a8c4e0" opacity="0.68"/>
    <circle cx="76"  cy="51"  r="1.1" fill="#a8c4e0" opacity="0.72"/>
    <circle cx="80"  cy="60"  r="1.1" fill="#a8c4e0" opacity="0.75"/>
    <circle cx="79"  cy="71"  r="1.2" fill="#a8c4e0" opacity="0.78"/>
    <circle cx="72"  cy="81"  r="1.2" fill="#a8c4e0" opacity="0.81"/>
    <circle cx="60"  cy="86"  r="1.3" fill="#a8c4e0" opacity="0.84"/>
    <circle cx="46"  cy="84"  r="1.3" fill="#a8c4e0" opacity="0.85"/>
    <circle cx="34"  cy="75"  r="1.4" fill="#a8c4e0" opacity="0.87"/>
    <circle cx="28"  cy="60"  r="1.4" fill="#a8c4e0" opacity="0.88"/>
    <circle cx="31"  cy="43"  r="1.5" fill="#a8c4e0" opacity="0.89"/>
    <circle cx="42"  cy="29"  r="1.5" fill="#a8c4e0" opacity="0.91"/>
    <circle cx="60"  cy="22"  r="1.6" fill="#a8c4e0" opacity="0.92"/>
    <circle cx="80"  cy="25"  r="1.6" fill="#a8c4e0" opacity="0.93"/>
    <circle cx="96"  cy="39"  r="1.7" fill="#a8c4e0" opacity="0.95"/>
    <circle cx="104" cy="60"  r="1.8" fill="#a8c4e0" opacity="0.96"/>
    <circle cx="60" cy="60" r="7.5" fill="#1e1e35"/>
    <circle cx="60" cy="60" r="5.5" fill="#c8a84b" opacity="0.28"/>
    <circle cx="60" cy="60" r="3"   fill="#d4b85a" opacity="0.68"/>
    <circle cx="60" cy="60" r="1.5" fill="#f0e8e0" opacity="0.97"/>
  </g>
  <!-- wordmark centered below -->
  <text x="140" y="152"
    font-family="system-ui, -apple-system, sans-serif"
    font-size="13" font-weight="400"
    fill="#a8c4e0" letter-spacing="6" text-anchor="middle">clear the</text>
  <text x="140" y="192"
    font-family="system-ui, -apple-system, sans-serif"
    font-size="36" font-weight="500"
    fill="#c4673a" letter-spacing="2" text-anchor="middle">signal</text>
  <text x="140" y="220"
    font-family="system-ui, -apple-system, sans-serif"
    font-size="11" font-weight="300"
    fill="#d4c4a8" letter-spacing="4" text-anchor="middle" opacity="0.7">find your frequency.</text>
</svg>
