<svg xmlns="http://www.w3.org/2000/svg" width="720" height="100"><rect width="720" height="100" fill="#26263f"/><rect x="10" y="10" width="70" height="58" rx="6" fill="#1e1e35"/><text x="45" y="82" font-family="system-ui,sans-serif" font-size="8" fill="#a8c4e0" text-anchor="middle" opacity="0.8">deep mesa</text><text x="45" y="92" font-family="monospace" font-size="7" fill="#6b6fad" text-anchor="middle" opacity="0.7">#1e1e35</text><rect x="88" y="10" width="70" height="58" rx="6" fill="#26263f"/><text x="123" y="82" font-family="system-ui,sans-serif" font-size="8" fill="#a8c4e0" text-anchor="middle" opacity="0.8">mesa light</text><text x="123" y="92" font-family="monospace" font-size="7" fill="#6b6fad" text-anchor="middle" opacity="0.7">#26263f</text><rect x="166" y="10" width="70" height="58" rx="6" fill="#6b6fad"/><text x="201" y="82" font-family="system-ui,sans-serif" font-size="8" fill="#a8c4e0" text-anchor="middle" opacity="0.8">periwinkle</text><text x="201" y="92" font-family="monospace" font-size="7" fill="#6b6fad" text-anchor="middle" opacity="0.7">#6b6fad</text><rect x="244" y="10" width="70" height="58" rx="6" fill="#8f93c9"/><text x="279" y="82" font-family="system-ui,sans-serif" font-size="8" fill="#a8c4e0" text-anchor="middle" opacity="0.8">peri light</text><text x="279" y="92" font-family="monospace" font-size="7" fill="#6b6fad" text-anchor="middle" opacity="0.7">#8f93c9</text><rect x="322" y="10" width="70" height="58" rx="6" fill="#c4673a"/><text x="357" y="82" font-family="system-ui,sans-serif" font-size="8" fill="#a8c4e0" text-anchor="middle" opacity="0.8">red rock</text><text x="357" y="92" font-family="monospace" font-size="7" fill="#6b6fad" text-anchor="middle" opacity="0.7">#c4673a</text><rect x="400" y="10" width="70" height="58" rx="6" fill="#d4845a"/><text x="435" y="82" font-family="system-ui,sans-serif" font-size="8" fill="#a8c4e0" text-anchor="middle" opacity="0.8">rr light</text><text x="435" y="92" font-family="monospace" font-size="7" fill="#6b6fad" text-anchor="middle" opacity="0.7">#d4845a</text><rect x="478" y="10" width="70" height="58" rx="6" fill="#a8c4e0"/><text x="513" y="82" font-family="system-ui,sans-serif" font-size="8" fill="#a8c4e0" text-anchor="middle" opacity="0.8">desert sky</text><text x="513" y="92" font-family="monospace" font-size="7" fill="#6b6fad" text-anchor="middle" opacity="0.7">#a8c4e0</text><rect x="556" y="10" width="70" height="58" rx="6" fill="#d4c4a8"/><text x="591" y="82" font-family="system-ui,sans-serif" font-size="8" fill="#a8c4e0" text-anchor="middle" opacity="0.8">adobe sand</text><text x="591" y="92" font-family="monospace" font-size="7" fill="#6b6fad" text-anchor="middle" opacity="0.7">#d4c4a8</text><rect x="634" y="10" width="70" height="58" rx="6" fill="#ffffff"/><text x="669" y="82" font-family="system-ui,sans-serif" font-size="8" fill="#a8c4e0" text-anchor="middle" opacity="0.8">white</text><text x="669" y="92" font-family="monospace" font-size="7" fill="#6b6fad" text-anchor="middle" opacity="0.7">#ffffff</text></svg>