<svg xmlns="http://www.w3.org/2000/svg" width="1640" height="624" viewBox="0 0 1640 624">
  <defs>
    <radialGradient id="bg" cx="55%" cy="45%" r="70%">
      <stop offset="0%" stop-color="#242440"/>
      <stop offset="100%" stop-color="#1e1e35"/>
    </radialGradient>
    <radialGradient id="glow" cx="50%" cy="50%" r="50%">
      <stop offset="0%" stop-color="#6b6fad" stop-opacity="0.08"/>
      <stop offset="100%" stop-color="#6b6fad" stop-opacity="0"/>
    </radialGradient>
  </defs>

  <!-- background -->
  <rect width="1640" height="624" fill="url(#bg)"/>

  <!-- ambient glow behind icon -->
  <ellipse cx="680" cy="312" rx="280" ry="220" fill="url(#glow)"/>

  <!-- noise stars — scattered naturally -->
  <circle cx="62"  cy="44"  r="1.2" fill="#d4c4a8" opacity="0.18"/>
  <circle cx="198" cy="29"  r="0.9" fill="#d4c4a8" opacity="0.14"/>
  <circle cx="340" cy="61"  r="1.0" fill="#d4c4a8" opacity="0.12"/>
  <circle cx="510" cy="18"  r="0.8" fill="#d4c4a8" opacity="0.16"/>
  <circle cx="720" cy="40"  r="1.1" fill="#d4c4a8" opacity="0.13"/>
  <circle cx="890" cy="22"  r="0.9" fill="#d4c4a8" opacity="0.15"/>
  <circle cx="1060" cy="55" r="1.0" fill="#d4c4a8" opacity="0.12"/>
  <circle cx="1230" cy="30" r="0.8" fill="#d4c4a8" opacity="0.17"/>
  <circle cx="1420" cy="48" r="1.2" fill="#d4c4a8" opacity="0.13"/>
  <circle cx="1580" cy="20" r="0.9" fill="#d4c4a8" opacity="0.14"/>
  <circle cx="44"  cy="180" r="0.8" fill="#d4c4a8" opacity="0.12"/>
  <circle cx="280" cy="210" r="1.0" fill="#d4c4a8" opacity="0.10"/>
  <circle cx="460" cy="155" r="0.9" fill="#d4c4a8" opacity="0.14"/>
  <circle cx="1310" cy="160" r="1.1" fill="#d4c4a8" opacity="0.11"/>
  <circle cx="1490" cy="190" r="0.8" fill="#d4c4a8" opacity="0.15"/>
  <circle cx="1600" cy="130" r="1.0" fill="#d4c4a8" opacity="0.12"/>
  <circle cx="80"  cy="540" r="1.1" fill="#d4c4a8" opacity="0.13"/>
  <circle cx="240" cy="580" r="0.9" fill="#d4c4a8" opacity="0.11"/>
  <circle cx="1380" cy="560" r="1.0" fill="#d4c4a8" opacity="0.14"/>
  <circle cx="1540" cy="590" r="0.8" fill="#d4c4a8" opacity="0.12"/>
  <circle cx="1620" cy="480" r="1.1" fill="#d4c4a8" opacity="0.15"/>
  <!-- desert sky accent stars -->
  <circle cx="148"  cy="112" r="1.4" fill="#a8c4e0" opacity="0.22"/>
  <circle cx="1488" cy="88"  r="1.3" fill="#a8c4e0" opacity="0.20"/>
  <circle cx="320"  cy="510" r="1.2" fill="#a8c4e0" opacity="0.18"/>
  <circle cx="1320" cy="520" r="1.4" fill="#a8c4e0" opacity="0.20"/>

  <!-- spiral icon — centered at x=540, y=312, scaled to ~180px -->
  <g transform="translate(540,312) scale(2.5) translate(-109,-755)">
    <path d="M 117 760 C 117 753 109 747 103 750 C 95 754 92 763 96 770 C 100 778 110 780 117 776 C 126 770 128 760 122 752 C 117 743 106 740 96 743 C 84 747 78 759 82 772 C 86 786 99 792 113 789 C 129 786 138 771 135 756 C 132 739 118 730 102 731"
      fill="none" stroke="#6b6fad" stroke-width="1.26" stroke-linecap="round" opacity="0.88"/>
    <path d="M 102 731 C 109 723 116 715 119 707"
      fill="none" stroke="#c4673a" stroke-width="1.17" stroke-linecap="round" opacity="0.95"/>
    <circle cx="119" cy="707" r="1.98" fill="#c4673a" opacity="0.95"/>
    <!-- orb center -->
    <circle cx="109" cy="760" r="8.10"  fill="#c4673a" opacity="0.08"/>
    <circle cx="109" cy="760" r="5.85"  fill="#c4673a" opacity="0.16"/>
    <circle cx="109" cy="760" r="3.60"  fill="#d4845a" opacity="0.55"/>
    <circle cx="109" cy="760" r="1.62"  fill="#f0e8e0" opacity="0.95"/>
    <!-- star nodes -->
    <circle cx="117" cy="760" r="1.98" fill="#a8c4e0" opacity="0.95"/>
    <circle cx="109" cy="751" r="1.71" fill="#a8c4e0" opacity="0.85"/>
    <circle cx="96"  cy="770" r="1.89" fill="#a8c4e0" opacity="0.92"/>
    <circle cx="109" cy="780" r="1.71" fill="#a8c4e0" opacity="0.85"/>
    <circle cx="123" cy="760" r="1.89" fill="#a8c4e0" opacity="0.92"/>
    <circle cx="109" cy="740" r="1.71" fill="#a8c4e0" opacity="0.82"/>
    <circle cx="135" cy="760" r="1.89" fill="#a8c4e0" opacity="0.85"/>
    <circle cx="102" cy="731" r="1.71" fill="#a8c4e0" opacity="0.82"/>
  </g>

  <!-- vertical rule -->
  <line x1="680" y1="200" x2="680" y2="424" stroke="#6b6fad" stroke-width="1" opacity="0.25"/>

  <!-- wordmark -->
  <text x="710" y="278"
    font-family="system-ui, -apple-system, sans-serif"
    font-size="26" font-weight="400"
    fill="#a8c4e0" letter-spacing="10" opacity="0.90">clear the</text>
  <text x="706" y="368"
    font-family="system-ui, -apple-system, sans-serif"
    font-size="88" font-weight="500"
    fill="#c4673a" letter-spacing="4">signal</text>

  <!-- tagline -->
  <text x="710" y="426"
    font-family="system-ui, -apple-system, sans-serif"
    font-size="22" font-weight="300"
    fill="#a8c4e0" letter-spacing="2" opacity="0.65">clear the signal.</text>
  <text x="902" y="426"
    font-family="system-ui, -apple-system, sans-serif"
    font-size="22" font-weight="300"
    fill="#c4673a" letter-spacing="2" opacity="0.75">  find your frequency.</text>

  <!-- url — bottom right, outside profile photo safe zone -->
  <text x="1540" y="580"
    font-family="system-ui, -apple-system, sans-serif"
    font-size="20" font-weight="400"
    fill="#d4c4a8" letter-spacing="3" opacity="0.35"
    text-anchor="end">clearthesignal.com</text>
</svg>
