<svg xmlns="http://www.w3.org/2000/svg" width="1640" height="624" viewBox="0 0 1640 624">
  <defs>
    <radialGradient id="bg" cx="55%" cy="45%" r="70%">
      <stop offset="0%" stop-color="#242440"/>
      <stop offset="100%" stop-color="#1e1e35"/>
    </radialGradient>
    <radialGradient id="glow" cx="50%" cy="50%" r="50%">
      <stop offset="0%" stop-color="#6b6fad" stop-opacity="0.08"/>
      <stop offset="100%" stop-color="#6b6fad" stop-opacity="0"/>
    </radialGradient>
  </defs>

  <!-- background -->
  <rect width="1640" height="624" fill="url(#bg)"/>

  <!-- ambient glow behind icon -->
  <ellipse cx="680" cy="312" rx="280" ry="220" fill="url(#glow)"/>

  <!-- noise stars — scattered naturally -->
  <circle cx="62"  cy="44"  r="1.2" fill="#d4c4a8" opacity="0.18"/>
  <circle cx="198" cy="29"  r="0.9" fill="#d4c4a8" opacity="0.14"/>
  <circle cx="340" cy="61"  r="1.0" fill="#d4c4a8" opacity="0.12"/>
  <circle cx="510" cy="18"  r="0.8" fill="#d4c4a8" opacity="0.16"/>
  <circle cx="720" cy="40"  r="1.1" fill="#d4c4a8" opacity="0.13"/>
  <circle cx="890" cy="22"  r="0.9" fill="#d4c4a8" opacity="0.15"/>
  <circle cx="1060" cy="55" r="1.0" fill="#d4c4a8" opacity="0.12"/>
  <circle cx="1230" cy="30" r="0.8" fill="#d4c4a8" opacity="0.17"/>
  <circle cx="1420" cy="48" r="1.2" fill="#d4c4a8" opacity="0.13"/>
  <circle cx="1580" cy="20" r="0.9" fill="#d4c4a8" opacity="0.14"/>
  <circle cx="44"  cy="180" r="0.8" fill="#d4c4a8" opacity="0.12"/>
  <circle cx="280" cy="210" r="1.0" fill="#d4c4a8" opacity="0.10"/>
  <circle cx="460" cy="155" r="0.9" fill="#d4c4a8" opacity="0.14"/>
  <circle cx="1310" cy="160" r="1.1" fill="#d4c4a8" opacity="0.11"/>
  <circle cx="1490" cy="190" r="0.8" fill="#d4c4a8" opacity="0.15"/>
  <circle cx="1600" cy="130" r="1.0" fill="#d4c4a8" opacity="0.12"/>
  <circle cx="80"  cy="540" r="1.1" fill="#d4c4a8" opacity="0.13"/>
  <circle cx="240" cy="580" r="0.9" fill="#d4c4a8" opacity="0.11"/>
  <circle cx="1380" cy="560" r="1.0" fill="#d4c4a8" opacity="0.14"/>
  <circle cx="1540" cy="590" r="0.8" fill="#d4c4a8" opacity="0.12"/>
  <circle cx="1620" cy="480" r="1.1" fill="#d4c4a8" opacity="0.15"/>
  <!-- desert sky accent stars -->
  <circle cx="148"  cy="112" r="1.4" fill="#a8c4e0" opacity="0.22"/>
  <circle cx="1488" cy="88"  r="1.3" fill="#a8c4e0" opacity="0.20"/>
  <circle cx="320"  cy="510" r="1.2" fill="#a8c4e0" opacity="0.18"/>
  <circle cx="1320" cy="520" r="1.4" fill="#a8c4e0" opacity="0.20"/>

  <!-- spiral icon — centered at x=540, y=312, scaled to 300px -->
  <g transform="translate(540,312) scale(2.5) translate(-60,-60)">
    <polyline points="60,60 68,46 76,51 80,60 79,71 72,81 60,86 46,84 34,75 28,60 31,43 42,29 60,22 80,25 96,39 104,60"
      fill="none" stroke="#6b6fad" stroke-width="0.75" stroke-linejoin="round" stroke-linecap="round" opacity="0.40"/>
    <line x1="104" y1="60" x2="116" y2="14" stroke="#c4673a" stroke-width="0.85" stroke-linecap="round" opacity="0.68"/>
    <circle cx="116" cy="14"  r="2.4" fill="#c4673a" opacity="0.95"/>
    <circle cx="68"  cy="46"  r="1.0" fill="#a8c4e0" opacity="0.68"/>
    <circle cx="76"  cy="51"  r="1.1" fill="#a8c4e0" opacity="0.72"/>
    <circle cx="80"  cy="60"  r="1.1" fill="#a8c4e0" opacity="0.75"/>
    <circle cx="79"  cy="71"  r="1.2" fill="#a8c4e0" opacity="0.78"/>
    <circle cx="72"  cy="81"  r="1.2" fill="#a8c4e0" opacity="0.81"/>
    <circle cx="60"  cy="86"  r="1.3" fill="#a8c4e0" opacity="0.84"/>
    <circle cx="46"  cy="84"  r="1.3" fill="#a8c4e0" opacity="0.85"/>
    <circle cx="34"  cy="75"  r="1.4" fill="#a8c4e0" opacity="0.87"/>
    <circle cx="28"  cy="60"  r="1.4" fill="#a8c4e0" opacity="0.88"/>
    <circle cx="31"  cy="43"  r="1.5" fill="#a8c4e0" opacity="0.89"/>
    <circle cx="42"  cy="29"  r="1.5" fill="#a8c4e0" opacity="0.91"/>
    <circle cx="60"  cy="22"  r="1.6" fill="#a8c4e0" opacity="0.92"/>
    <circle cx="80"  cy="25"  r="1.6" fill="#a8c4e0" opacity="0.93"/>
    <circle cx="96"  cy="39"  r="1.7" fill="#a8c4e0" opacity="0.95"/>
    <circle cx="104" cy="60"  r="1.8" fill="#a8c4e0" opacity="0.96"/>
    <circle cx="60" cy="60" r="7.5" fill="#1e1e35" opacity="0.90"/>
    <circle cx="60" cy="60" r="5.5" fill="#c8a84b" opacity="0.28"/>
    <circle cx="60" cy="60" r="3"   fill="#d4b85a" opacity="0.68"/>
    <circle cx="60" cy="60" r="1.5" fill="#f0e8e0" opacity="0.97"/>
  </g>

  <!-- vertical rule -->
  <line x1="680" y1="200" x2="680" y2="424" stroke="#6b6fad" stroke-width="1" opacity="0.25"/>

  <!-- wordmark -->
  <text x="710" y="278"
    font-family="system-ui, -apple-system, sans-serif"
    font-size="26" font-weight="400"
    fill="#a8c4e0" letter-spacing="10" opacity="0.90">clear the</text>
  <text x="706" y="368"
    font-family="system-ui, -apple-system, sans-serif"
    font-size="88" font-weight="500"
    fill="#c4673a" letter-spacing="4">signal</text>

  <!-- tagline -->
  <text x="710" y="426"
    font-family="system-ui, -apple-system, sans-serif"
    font-size="22" font-weight="300"
    fill="#a8c4e0" letter-spacing="2" opacity="0.65">clear the signal.</text>
  <text x="902" y="426"
    font-family="system-ui, -apple-system, sans-serif"
    font-size="22" font-weight="300"
    fill="#c4673a" letter-spacing="2" opacity="0.75">  find your frequency.</text>

  <!-- url — bottom right, outside profile photo safe zone -->
  <text x="1540" y="580"
    font-family="system-ui, -apple-system, sans-serif"
    font-size="20" font-weight="400"
    fill="#d4c4a8" letter-spacing="3" opacity="0.35"
    text-anchor="end">clearthesignal.com</text>
</svg>
